<svg xmlns="http://www.w3.org/2000/svg" width="106" height="109" fill="none" viewBox="0 0 106 109"><path fill="url(#a)" d="m10.313 39.923 45.92-35.959L58.503 0l7.09 2.014c.1.03.21.061.31.094 2.13.68 4.05 2.077 5.44 4.141l31.96 47.74c3.42 5.115 2.21 12.385-2.71 16.238l-45.92 35.96c-1.68 1.32-3.59 2.067-5.5 2.274l-6.85-.025.35-1.479a10.6 10.6 0 0 1-3.11-3.056L7.603 56.162c-3.43-5.115-2.21-12.386 2.71-16.239"/><path fill="url(#b)" d="m10.313 39.923 45.92-35.959L58.503 0l7.09 2.014c.1.03.21.061.31.094 2.13.68 4.05 2.077 5.44 4.141l31.96 47.74c3.42 5.115 2.21 12.385-2.71 16.238l-45.92 35.96c-1.68 1.32-3.59 2.067-5.5 2.274l-6.85-.025.35-1.479a10.6 10.6 0 0 1-3.11-3.056L7.603 56.162c-3.43-5.115-2.21-12.386 2.71-16.239"/><path fill="#956de6" d="m4.353 40.6 48.39-37.896c3.96-3.1 9.42-2.229 12.21 1.948l33.52 50.068c2.82 4.207 1.87 10.165-2.12 13.286l-48.39 37.896c-3.96 3.099-9.41 2.229-12.21-1.949L2.233 53.886C-.587 49.679.363 43.721 4.353 40.6"/><path fill="url(#c)" d="m4.353 40.6 48.39-37.896c3.96-3.1 9.42-2.229 12.21 1.948l33.52 50.068c2.82 4.207 1.87 10.165-2.12 13.286l-48.39 37.896c-3.96 3.099-9.41 2.229-12.21-1.949L2.233 53.886C-.587 49.679.363 43.721 4.353 40.6"/><path stroke="url(#d)" stroke-width="1.221" d="m4.353 40.6 48.39-37.896c3.96-3.1 9.42-2.229 12.21 1.948l33.52 50.068c2.82 4.207 1.87 10.165-2.12 13.286l-48.39 37.896c-3.96 3.099-9.41 2.229-12.21-1.949L2.233 53.886C-.587 49.679.363 43.721 4.353 40.6Z"/><defs><radialGradient id="b" cx="0" cy="0" r="1" gradientTransform="rotate(-19.91 192.352 21.774)scale(49.1288 72.8734)" gradientUnits="userSpaceOnUse"><stop stop-color="#d83c94"/><stop offset="1" stop-color="#d73b93" stop-opacity="0"/></radialGradient><radialGradient id="c" cx="0" cy="0" r="1" gradientTransform="rotate(195.269 65.638 28.236)scale(61.8792 57.6724)" gradientUnits="userSpaceOnUse"><stop stop-color="#d83c94"/><stop offset="1" stop-color="#d73b93" stop-opacity="0"/></radialGradient><linearGradient id="a" x1="93.083" x2="19.473" y1="63.258" y2="90.628" gradientUnits="userSpaceOnUse"><stop stop-color="#956de6"/><stop offset="1" stop-color="#4c3790"/></linearGradient><linearGradient id="d" x1=".063" x2="75.803" y1="38.788" y2="13.394" gradientUnits="userSpaceOnUse"><stop stop-color="#d73b93" stop-opacity="0"/><stop offset="1" stop-color="#d63b92" stop-opacity=".4"/></linearGradient></defs></svg>